<svg version="1.1" xmlns="http://www.w3.org/2000/svg" viewBox="-404.4800064086914 -1044.480029296875 3126.2720703125 4249.599999999999"><desc>Created with Snap</desc><defs></defs><g><rect x="-404.4800064086914" y="-1044.480029296875" width="3126.2720703125" height="4249.599999999999" fill="#cfd1c0" style=""></rect><g transform="matrix(32,0,0,32,-441.344,145.92)"><g><circle cx="70.2" cy="48" r="3" fill="#292929" style=""></circle><circle cx="56" cy="48" r="3" fill="#292929" style=""></circle><circle cx="70.2" cy="33.8" r="3" fill="#292929" style=""></circle><path d="M75.6,22.9H53.8c-2.6-5.3-8-8.9-14.3-8.9c-8.7,0-15.9,7.1-15.9,15.8c0,5,2.3,9.4,5.9,12.3L19,75.1c0,0.1-0.1,0.3-0.1,0.5   C18.9,81.4,28,86,39.5,86c11.6,0,20.7-4.6,20.7-10.4c0-0.2,0-0.3-0.1-0.5l-5.2-16.2h20.7c3,0,5.5-2.5,5.5-5.5v-25   C81.1,25.4,78.6,22.9,75.6,22.9z M26.7,29.8c0-7,5.8-12.8,12.9-12.8s12.9,5.7,12.9,12.8c0,7-5.8,12.8-12.9,12.8   S26.7,36.8,26.7,29.8z M39.5,83c-10.2,0-17.4-3.8-17.6-7.2l10.3-32c2.2,1.1,4.7,1.8,7.3,1.8c2.6,0,5.1-0.7,7.3-1.8l10.3,32   C56.9,79.2,49.7,83,39.5,83z M78.1,53.4c0,1.4-1.1,2.5-2.5,2.5H53.9l-4.5-13.8c2-1.6,3.6-3.6,4.6-6c0.5,0.4,1.2,0.7,1.9,0.7   c1.7,0,3-1.3,3-3s-1.3-3-3-3c-0.2,0-0.4,0-0.6,0.1c0-0.4,0.1-0.7,0.1-1.1c0-1.3-0.2-2.6-0.5-3.9h20.7c1.4,0,2.5,1.1,2.5,2.5V53.4z" fill="#292929" style=""></path><circle cx="63.1" cy="40.9" r="3" fill="#292929" style=""></circle></g><desc>Created with Snap</desc><defs></defs></g><g><g transform="matrix(1.024,0,0,-1.024,0,0)"><path d="M-58 -280Q-66 -280 -75 -274Q-83 -268 -89 -261Q-95 -254 -95 -251Q-74 -186 -58 -138Q-42 -89 -30 -44Q-17 2 -6 54Q5 107 16 178Q27 249 39 352Q41 363 44 368Q47 373 62 373Q91 373 104 357Q117 341 117 322Q117 311 112 282Q108 254 100 215Q118 245 143 273Q168 302 199 321Q230 340 266 340Q314 340 344 307Q375 275 375 222Q375 183 357 139Q340 96 308 57Q277 19 232 -6Q188 -30 135 -30Q105 -30 87 -23Q69 -15 69 -7Q69 -1 76 0Q84 2 93 2Q138 2 175 21Q213 41 241 72Q270 103 285 139Q301 175 301 211Q301 241 287 263Q274 286 245 286Q219 286 193 269Q168 253 146 228Q124 204 107 177Q90 150 81 129Q62 60 45 -7Q29 -73 14 -130Q0 -186 -15 -224Q-29 -262 -43 -274Q-50 -280 -58 -280ZM459 -47Q427 -47 403 -26Q380 -4 380 39Q380 75 396 116Q412 157 440 197Q468 237 504 270Q540 303 580 323Q621 343 661 343Q703 343 731 321Q760 300 760 265Q760 238 743 227Q726 216 701 220Q703 228 704 237Q706 247 706 256Q706 277 697 293Q688 309 662 309Q634 309 605 290Q576 271 549 240Q522 209 501 172Q480 135 468 99Q456 63 456 35Q456 1 481 1Q504 1 531 23Q559 45 587 79Q616 113 642 148Q668 184 687 211Q691 216 694 216Q699 215 710 211Q721 208 730 202Q739 196 739 186Q739 176 730 160Q721 145 710 126Q699 107 690 88Q681 69 681 51Q681 38 688 25Q696 13 713 13Q738 13 781 49Q825 86 870 169L886 153Q863 99 829 58Q796 17 759 -7Q722 -30 685 -30Q645 -30 626 -6Q607 19 605 48Q605 51 605 54Q606 58 606 61Q565 10 531 -19Q497 -47 459 -47ZM789 -280Q781 -280 772 -274Q764 -268 758 -261Q752 -254 752 -251Q773 -186 789 -138Q805 -89 817 -44Q830 2 841 54Q852 107 863 178Q874 249 886 352Q888 363 891 368Q894 373 909 373Q938 373 951 357Q964 341 964 322Q964 311 959 282Q955 254 947 215Q965 245 990 273Q1015 302 1046 321Q1077 340 1113 340Q1161 340 1191 307Q1222 275 1222 222Q1222 183 1204 139Q1187 96 1155 57Q1124 19 1079 -6Q1035 -30 982 -30Q952 -30 934 -23Q916 -15 916 -7Q916 -1 923 0Q931 2 940 2Q985 2 1022 21Q1060 41 1088 72Q1117 103 1132 139Q1148 175 1148 211Q1148 241 1134 263Q1121 286 1092 286Q1066 286 1040 269Q1015 253 993 228Q971 204 954 177Q937 150 928 129Q909 60 892 -7Q876 -73 861 -130Q847 -186 832 -224Q818 -262 804 -274Q797 -280 789 -280ZM1299 -38Q1278 -38 1268 -5Q1258 29 1258 72Q1258 119 1274 184Q1290 249 1316 321Q1342 394 1374 463Q1407 533 1441 589Q1476 646 1507 680Q1538 714 1561 714Q1581 714 1591 691Q1601 669 1601 646Q1601 618 1588 578Q1576 539 1554 494Q1532 449 1502 405Q1473 361 1439 325Q1405 289 1368 267Q1356 235 1348 203Q1340 172 1336 143Q1333 114 1333 88Q1333 81 1333 75Q1334 69 1335 63Q1342 81 1353 110Q1365 140 1381 173Q1398 206 1420 236Q1443 266 1472 284Q1501 303 1536 303Q1568 303 1586 288Q1605 274 1612 252Q1620 230 1620 207Q1620 176 1609 147Q1599 119 1588 93Q1578 68 1578 45Q1578 27 1586 19Q1594 11 1606 11Q1628 11 1657 33Q1687 55 1716 91Q1745 128 1765 172L1780 157Q1758 107 1727 66Q1697 25 1660 0Q1623 -24 1582 -24Q1545 -24 1526 -5Q1507 15 1507 44Q1507 65 1514 90Q1522 116 1529 142Q1536 169 1536 191Q1536 215 1525 225Q1515 235 1500 235Q1475 235 1455 215Q1435 195 1418 164Q1402 133 1388 98Q1374 64 1360 32Q1347 1 1332 -19Q1317 -38 1299 -38ZM1387 323Q1413 346 1438 378Q1463 411 1484 447Q1506 483 1522 517Q1538 551 1547 578Q1557 605 1558 620Q1558 622 1557 623Q1557 624 1556 624Q1550 624 1530 598Q1510 573 1483 530Q1457 487 1431 433Q1405 379 1387 323ZM2086 -30Q2040 -30 2021 1Q2003 32 2003 75Q2003 124 2021 190Q2039 256 2068 328Q2098 401 2133 470Q2169 540 2204 596Q2240 653 2270 686Q2301 720 2319 720Q2331 720 2339 707Q2348 694 2353 675Q2358 657 2358 642Q2358 615 2344 571Q2331 528 2306 475Q2282 423 2248 368Q2215 314 2175 264Q2135 215 2089 179Q2085 154 2081 129Q2078 104 2078 83Q2078 46 2089 28Q2101 11 2121 11Q2147 11 2173 35Q2200 59 2224 95Q2248 132 2266 171L2287 159Q2245 72 2194 21Q2143 -30 2086 -30ZM2104 232Q2139 268 2170 312Q2201 357 2227 403Q2254 449 2274 492Q2294 536 2305 570Q2316 605 2317 625Q2317 629 2316 630Q2315 632 2315 632Q2307 632 2288 608Q2270 585 2245 545Q2221 505 2195 453Q2169 401 2145 344Q2121 287 2104 232Z" fill="#292929" style=""></path></g></g></g></svg>